<svg height="483pt" viewBox="0 -4 483.6783 483" width="483pt" xmlns="http://www.w3.org/2000/svg"><path d="m187.679688 76.015625v-67.679687c-.003907-3.234376-1.953126-6.148438-4.941407-7.386719s-6.429687-.554688-8.714843 1.730469l-171.679688 171.683593c-3.125 3.121094-3.125 8.1875 0 11.308594l171.679688 171.679687c2.285156 2.289063 5.726562 2.972657 8.714843 1.734376 2.988281-1.238282 4.9375-4.152344 4.941407-7.386719v-67.683594h13.519531c105.070312-.277344 201.378906 58.535156 249.117187 152.136719l18.242188 35.519531c1.683594 3.292969 5.40625 5 9 4.128906 3.59375-.867187 6.125-4.085937 6.121094-7.785156v-96c-.1875-163.398437-132.601563-295.8125-296-296zm280 358.914063-3.128907-6.082032c-50.464843-98.953125-152.273437-161.128906-263.351562-160.832031h-21.519531c-4.417969 0-8 3.582031-8 8v56.371094l-152.371094-152.371094 152.371094-152.367187v56.367187c0 4.421875 3.582031 8 8 8h8c154.566406.179687 279.820312 125.433594 280 280zm0 0"/></svg>