<?xml version="1.0" encoding="iso-8859-1"?>
<!-- Generator: Adobe Illustrator 19.0.0, SVG Export Plug-In . SVG Version: 6.00 Build 0)  -->
<svg xmlns="http://www.w3.org/2000/svg" xmlns:xlink="http://www.w3.org/1999/xlink" version="1.1" id="Layer_1" x="0px" y="0px" viewBox="0 0 512 512" 
style="enable-background:new 0 0 512 512;
                              fill:white;
                              position:absolute;
                              width:20%;
                              height:70%;
                              left:80%;
                              top:20%;  
                       "xml:space="preserve">
<g>
	<g>
		<path d="M432.001,65H304c-6.067,0-11.536,3.655-13.858,9.26c-2.321,5.605-1.038,12.057,3.252,16.347l30.769,30.768l-69.394,69.393    c-5.858,5.858-5.858,15.355,0,21.213l45.25,45.251c2.929,2.929,6.768,4.393,10.606,4.393c3.838,0,7.678-1.464,10.606-4.393    l69.394-69.394l30.769,30.769c4.29,4.291,10.745,5.573,16.347,3.251c5.605-2.322,9.26-7.791,9.26-13.858V80    C447.001,71.716,440.285,65,432.001,65z M417,171.787l-15.769-15.769c-5.857-5.858-15.355-5.858-21.213,0l-69.394,69.394    l-24.037-24.037l69.394-69.393c5.858-5.858,5.858-15.355,0-21.213L340.213,95H417V171.787z"/>
	</g>
</g>
<g>
	<g>
		<path d="M257.231,300.017l-45.25-45.25c-5.857-5.858-15.355-5.858-21.213,0l-69.394,69.393l-30.769-30.768    c-4.289-4.29-10.743-5.572-16.347-3.251C68.654,292.463,65,297.933,65,304v128c0,8.284,6.716,15,15,15h128    c6.067,0,11.536-3.655,13.858-9.26c2.321-5.605,1.038-12.057-3.252-16.347l-30.769-30.769l69.394-69.394    C263.089,315.372,263.089,305.875,257.231,300.017z M156.019,380.019c-5.858,5.858-5.858,15.355,0,21.213L171.787,417H95v-76.787    l15.769,15.768c5.857,5.858,15.355,5.858,21.213,0l69.394-69.393l24.037,24.037L156.019,380.019z"/>
	</g>
</g>
<g>
	<g>
		<path d="M432,0H80C35.888,0,0,35.888,0,80v352c0,44.112,35.888,80,80,80h352c44.112,0,80-35.888,80-80V80    C512,35.888,476.112,0,432,0z M482,432c0,27.57-22.43,50-50,50H80c-27.57,0-50-22.43-50-50V80c0-27.57,22.43-50,50-50h352    c27.57,0,50,22.43,50,50V432z"/>
	</g>
</g>
<g>
</g>
<g>
</g>
<g>
</g>
<g>
</g>
<g>
</g>
<g>
</g>
<g>
</g>
<g>
</g>
<g>
</g>
<g>
</g>
<g>
</g>
<g>
</g>
<g>
</g>
<g>
</g>
<g>
</g>
</svg>
