<svg height="483pt" viewBox="0 -4 483.6783 483" width="483pt" xmlns="http://www.w3.org/2000/svg"><path d="m481.335938 174.363281-171.679688-171.683593c-2.289062-2.285157-5.730469-2.96875-8.71875-1.730469s-4.9375 4.152343-4.9375 7.386719v67.679687c-163.398438.1875-295.816406 132.601563-296 296v96c-.00390625 3.699219 2.527344 6.917969 6.121094 7.785156 3.59375.871094 7.3125-.835937 9-4.128906l18.238281-35.519531c47.742187-93.601563 144.046875-152.414063 249.121094-152.136719h13.519531v67.683594c0 3.234375 1.949219 6.148437 4.9375 7.386719 2.988281 1.238281 6.429688.554687 8.71875-1.734376l171.679688-171.679687c3.125-3.121094 3.125-8.1875 0-11.308594zm-169.335938 158.023438v-56.371094c0-4.417969-3.582031-8-8-8h-21.519531c-111.070313-.300781-212.878907 61.863281-263.351563 160.800781l-3.128906 6.113282v-62.914063c.175781-154.566406 125.433594-279.820313 280-280h8c4.417969 0 8-3.578125 8-8v-56.367187l152.367188 152.367187zm0 0"/></svg>