<?xml version="1.0" encoding="iso-8859-1"?>
<!-- Generator: Adobe Illustrator 19.0.0, SVG Export Plug-In . SVG Version: 6.00 Build 0)  -->
<svg xmlns="http://www.w3.org/2000/svg" xmlns:xlink="http://www.w3.org/1999/xlink" version="1.1" id="Layer_1" x="0px" y="0px" viewBox="0 0 512 512"  style="enable-background:new 0 0 512 512;
              fill:white;
              position:absolute;
              width:20%;
              height:70%;
              left:80%;
              top:20%;  
       " xml:space="preserve">
<g>
	<g>
		<path d="M497,192h-17v-81c0-8.284-6.716-15-15-15h-17V15c0-8.284-6.716-15-15-15H79c-8.284,0-15,6.716-15,15v81H47    c-8.284,0-15,6.716-15,15v81H15c-8.284,0-15,6.716-15,15v290c0,8.284,6.716,15,15,15h482c8.284,0,15-6.716,15-15V207    C512,198.716,505.284,192,497,192z M94,30h324v66H94V30z M62,126h17h354h17v66H62V126z M482,482H30V350h452V482z M482,320H30v-98    h17h418h17V320z"/>
	</g>
</g>
<g>
	<g>
		<circle cx="79" cy="271" r="16"/>
	</g>
</g>
<g>
	<g>
		<circle cx="143" cy="271" r="16"/>
	</g>
</g>
<g>
	<g>
		<circle cx="207" cy="271" r="16"/>
	</g>
</g>
<g>
	<g>
		<path d="M433,256H271c-8.284,0-15,6.716-15,15s6.716,15,15,15h162c8.284,0,15-6.716,15-15S441.284,256,433,256z"/>
	</g>
</g>
<g>
</g>
<g>
</g>
<g>
</g>
<g>
</g>
<g>
</g>
<g>
</g>
<g>
</g>
<g>
</g>
<g>
</g>
<g>
</g>
<g>
</g>
<g>
</g>
<g>
</g>
<g>
</g>
<g>
</g>
</svg>
