<svg xmlns="http://www.w3.org/2000/svg" width="1568.532" height="1080.54" viewBox="0 0 1568.532 1080.54">
  <g id="Group_29" data-name="Group 29" transform="translate(-350.639 0.54)">
    <path id="Path_22" data-name="Path 22" d="M768.212,1728.56c206.051,280.446,326.994,190.133,600.236,390.286s548.723,41.5,548.723,41.5V1140.048H511s-92.185-1.876-157.853,1.072c-15.675,31.789,6.321,135.006,117.187,257.663C765.972,1725.862,768.212,1728.56,768.212,1728.56Z" transform="translate(2 -1140)" fill="#1c4ed8"/>
    <g id="_048-mobile-app" data-name="048-mobile-app" transform="translate(1124.504 149)" opacity="0.12">
      <circle id="Ellipse_5" data-name="Ellipse 5" cx="384.248" cy="384.248" r="384.248" transform="translate(11 34.504)" fill="#5dc1d8"/>
      <path id="Path_39" data-name="Path 39" d="M406.854,631.37a6.28,6.28,0,0,1,6.273-6.273h6.851a1.568,1.568,0,0,0,1.109-2.677L346.571,547.9a22.026,22.026,0,0,1,0-31.05l3.113-3.113a22.026,22.026,0,0,1,31.05,0l19.532,19.532a1.569,1.569,0,0,0,1.109.46,1.549,1.549,0,0,0,.6-.119,1.567,1.567,0,0,0,.968-1.449v-159.3A21.981,21.981,0,0,1,424.9,350.909h.652a21.9,21.9,0,0,1,16.576,7.6V15.684A15.73,15.73,0,0,0,426.445,0H94.385A15.73,15.73,0,0,0,78.7,15.684v610.8a15.73,15.73,0,0,0,15.684,15.684H406.852v-10.8h0Z" transform="translate(38.479)" fill="#2e4c89"/>
      <path id="Path_40" data-name="Path 40" d="M332.176,510.852a21.8,21.8,0,0,1,6.4-15.525l3.113-3.113a22.026,22.026,0,0,1,31.05,0l19.532,19.532a1.569,1.569,0,0,0,1.109.46,1.549,1.549,0,0,0,.6-.119,1.567,1.567,0,0,0,.968-1.449V351.34a21.982,21.982,0,0,1,17.134-21.4V46.15a8.3,8.3,0,0,0-8.276-8.276H101.038a8.3,8.3,0,0,0-8.275,8.276V511.8a8.3,8.3,0,0,0,8.275,8.273H334.209A21.949,21.949,0,0,1,332.176,510.852Z" transform="translate(46.471 21.526)" fill="#c3ddf4"/>
      <path id="Path_41" data-name="Path 41" d="M123.882,511.806V46.15a8.3,8.3,0,0,1,8.275-8.276H101.038a8.3,8.3,0,0,0-8.275,8.276V511.8a8.3,8.3,0,0,0,8.275,8.273h31.119A8.3,8.3,0,0,1,123.882,511.806Z" transform="translate(46.471 21.526)" fill="#aec1ed"/>
      <g id="Group_23" data-name="Group 23" transform="translate(222.437 16.32)">
        <circle id="Ellipse_6" data-name="Ellipse 6" cx="29.11" cy="29.11" r="29.11" transform="translate(47.341 541.167)" fill="#1a2b63"/>
        <path id="Path_42" data-name="Path 42" d="M271.741,34.867H181.768a11.763,11.763,0,0,1,0-23.525h89.974a11.763,11.763,0,0,1,0,23.525Z" transform="translate(-132.065 -9.874)" fill="#1a2b63"/>
        <circle id="Ellipse_7" data-name="Ellipse 7" cx="13.231" cy="13.231" r="13.231" fill="#1a2b63"/>
      </g>
      <path id="Path_43" data-name="Path 43" d="M403.809,37.874H101.038a8.3,8.3,0,0,0-8.275,8.276V82.881H412.087V46.15A8.3,8.3,0,0,0,403.809,37.874Z" transform="translate(46.471 21.526)" fill="#ff9518"/>
      <path id="Path_44" data-name="Path 44" d="M132.157,37.874H101.038a8.3,8.3,0,0,0-8.275,8.276V82.881h31.119V46.15A8.3,8.3,0,0,1,132.157,37.874Z" transform="translate(46.471 21.526)" fill="#ef8318"/>
      <path id="Path_45" data-name="Path 45" d="M378.75,256.488a15.73,15.73,0,0,1-15.684,15.684H124.049a15.73,15.73,0,0,1-15.684-15.684V180.276a15.73,15.73,0,0,1,15.684-15.684H363.067a15.73,15.73,0,0,1,15.684,15.684Z" transform="translate(55.338 93.547)" fill="#445ea0"/>
      <path id="Path_46" data-name="Path 46" d="M332.176,391.083a21.8,21.8,0,0,1,6.4-15.525l3.113-3.113a22.026,22.026,0,0,1,31.05,0l19.532,19.532a1.569,1.569,0,0,0,1.109.46,1.549,1.549,0,0,0,.6-.119,1.567,1.567,0,0,0,.968-1.449V248.6H92.763V392.037a8.3,8.3,0,0,0,8.275,8.273H334.209A21.962,21.962,0,0,1,332.176,391.083Z" transform="translate(46.471 141.295)" fill="#eef6ff"/>
      <path id="Path_47" data-name="Path 47" d="M123.882,392.037V248.6H92.763V392.037a8.3,8.3,0,0,0,8.275,8.273h31.119A8.3,8.3,0,0,1,123.882,392.037Z" transform="translate(46.471 141.295)" fill="#d9eafc"/>
      <g id="Group_24" data-name="Group 24" transform="translate(186.939 410.609)">
        <path id="Path_48" data-name="Path 48" d="M260.041,285.333h-125.1a11.763,11.763,0,1,1,0-23.525h125.1a11.763,11.763,0,1,1,0,23.525Z" transform="translate(-123.18 -261.808)" fill="#5dc1d8"/>
        <path id="Path_49" data-name="Path 49" d="M260.041,310.2h-125.1a11.763,11.763,0,1,1,0-23.525h125.1a11.763,11.763,0,1,1,0,23.525Z" transform="translate(-123.18 -247.676)" fill="#5dc1d8"/>
        <path id="Path_50" data-name="Path 50" d="M197.741,335.062h-62.8a11.763,11.763,0,1,1,0-23.525h62.8a11.763,11.763,0,1,1,0,23.525Z" transform="translate(-123.18 -233.544)" fill="#5dc1d8"/>
      </g>
      <path id="Path_51" data-name="Path 51" d="M253.116,348.414a11.764,11.764,0,0,1-9.5-18.692L259.011,308.6l-15.39-21.121a11.764,11.764,0,0,1,19.015-13.855l20.437,28.049a11.764,11.764,0,0,1,0,13.855l-20.44,28.05A11.755,11.755,0,0,1,253.116,348.414Z" transform="translate(130.928 152.768)" fill="#ff9518"/>
      <path id="Path_52" data-name="Path 52" d="M297.073,439.522V547.789a382.151,382.151,0,0,0,156.37-64.344V439.522Z" transform="translate(162.592 249.806)" fill="#ef8318"/>
      <path id="Path_53" data-name="Path 53" d="M297.073,439.522V547.789q15.79-2.665,31.121-6.606V439.522Z" transform="translate(162.592 249.806)" fill="#db722c"/>
      <path id="Path_54" data-name="Path 54" d="M486.086,498.5v-163a23.6,23.6,0,0,0-23.525-23.525h-.652a23.6,23.6,0,0,0-21.538,14.122,23.6,23.6,0,0,0-21.538-14.122h-.654a23.6,23.6,0,0,0-21.538,14.122A23.6,23.6,0,0,0,375.1,311.973h-.652A23.549,23.549,0,0,0,354.9,322.466v-76.2a23.6,23.6,0,0,0-23.525-23.525h-.652a23.6,23.6,0,0,0-23.525,23.525v159.3L287.66,386.031a23.6,23.6,0,0,0-33.27,0l-3.112,3.113a23.593,23.593,0,0,0,0,33.27L327.363,498.5Z" transform="translate(132.664 126.598)" fill="#ffe2b8"/>
      <path id="Path_55" data-name="Path 55" d="M358.482,441.806,282.4,365.721a23.593,23.593,0,0,1,0-33.27l3.112-3.113c.345-.345.714-.651,1.074-.971a23.583,23.583,0,0,0-32.2.971l-3.112,3.113a23.593,23.593,0,0,0,0,33.27l76.084,76.084Z" transform="translate(132.663 183.291)" fill="#ffc987"/>
      <path id="Path_56" data-name="Path 56" d="M475.109,457.094a7.865,7.865,0,0,1-7.842,7.842H294.776a7.865,7.865,0,0,1-7.842-7.842V405.41a7.865,7.865,0,0,1,7.842-7.842H467.267a7.865,7.865,0,0,1,7.842,7.842Z" transform="translate(156.83 225.962)" fill="#ff9518"/>
      <path id="Path_57" data-name="Path 57" d="M318.054,457.094V405.41a7.865,7.865,0,0,1,7.842-7.842H294.775a7.865,7.865,0,0,0-7.842,7.842v51.684a7.865,7.865,0,0,0,7.842,7.842H325.9A7.865,7.865,0,0,1,318.054,457.094Z" transform="translate(156.829 225.962)" fill="#ef8318"/>
      <circle id="Ellipse_8" data-name="Ellipse 8" cx="14.576" cy="14.576" r="14.576" transform="translate(582.912 642.645)" fill="#db722c"/>
      <path id="Path_58" data-name="Path 58" d="M566.112,301.845a7.865,7.865,0,0,1-7.842,7.842H332.762a7.865,7.865,0,0,1-7.842-7.842v-162.7a7.865,7.865,0,0,1,7.842-7.842H558.27a7.865,7.865,0,0,1,7.842,7.842Z" transform="translate(178.419 74.629)" fill="#fe3745"/>
      <path id="Path_59" data-name="Path 59" d="M376.7,168.8c0-8.626,6.112-12.155,13.582-7.842l62.162,35.889c7.47,4.313,7.47,11.371,0,15.684L390.28,248.42c-7.47,4.313-13.582.784-13.582-7.842Z" transform="translate(207.848 90.435)" fill="#fff"/>
      <path id="Path_60" data-name="Path 60" d="M547.238,94.365a35.263,35.263,0,0,1-34.021-44.609H332.762A7.865,7.865,0,0,0,324.92,57.6v93.027a7.865,7.865,0,0,0,7.842,7.842H558.27a7.865,7.865,0,0,0,7.842-7.842V88.869A35.056,35.056,0,0,1,547.238,94.365Z" transform="translate(178.419 28.279)" fill="#ffaf10"/>
      <path id="Path_61" data-name="Path 61" d="M356.041,301.845v-162.7a7.865,7.865,0,0,1,7.842-7.842H332.762a7.865,7.865,0,0,0-7.842,7.842v162.7a7.865,7.865,0,0,0,7.842,7.842h31.121A7.865,7.865,0,0,1,356.041,301.845Z" transform="translate(178.419 74.629)" fill="#b7092b"/>
      <path id="Path_62" data-name="Path 62" d="M356.041,150.625V57.6a7.865,7.865,0,0,1,7.842-7.842H332.762A7.865,7.865,0,0,0,324.92,57.6v93.027a7.865,7.865,0,0,0,7.842,7.842h31.121A7.865,7.865,0,0,1,356.041,150.625Z" transform="translate(178.419 28.279)" fill="#ef9614"/>
      <circle id="Ellipse_9" data-name="Ellipse 9" cx="36.85" cy="36.85" r="36.85" transform="translate(688.804 50.512)" fill="#b7092b"/>
      <path id="Path_63" data-name="Path 63" d="M472.251,83.12a7.841,7.841,0,0,1-7.842-7.842V58.224a7.843,7.843,0,0,1,2.257-15.354h5.585a7.841,7.841,0,0,1,7.842,7.842V75.279A7.841,7.841,0,0,1,472.251,83.12Z" transform="translate(254.525 24.366)" fill="#eef6ff"/>
      <g id="Group_25" data-name="Group 25" transform="translate(529.534 102.293)">
        <path id="Path_64" data-name="Path 64" d="M465.673,88.748H353.385a11.763,11.763,0,0,1,0-23.525H465.673a11.763,11.763,0,0,1,0,23.525Z" transform="translate(-341.622 -65.223)" fill="#db722c"/>
        <path id="Path_65" data-name="Path 65" d="M499.62,111.939H353.385a11.763,11.763,0,1,1,0-23.525H499.62a11.763,11.763,0,0,1,0,23.525Z" transform="translate(-341.622 -52.042)" fill="#db722c"/>
      </g>
      <circle id="Ellipse_10" data-name="Ellipse 10" cx="58.547" cy="58.547" r="58.547" transform="translate(240.341 123.383)" fill="#ef8318"/>
      <circle id="Ellipse_11" data-name="Ellipse 11" cx="47.051" cy="47.051" r="47.051" transform="translate(251.837 134.879)" fill="#ff9518"/>
      <path id="Path_66" data-name="Path 66" d="M222.428,141.773h-10.45v-2.516a23.264,23.264,0,1,0-15.969,0v2.516h-10.45a7.61,7.61,0,0,0-7.586,7.589v18.245a47.037,47.037,0,0,0,52.041,0V149.359A7.607,7.607,0,0,0,222.428,141.773Z" transform="translate(94.901 53.521)" fill="#fff"/>
      <path id="Path_67" data-name="Path 67" d="M183.166,232.713a7.865,7.865,0,0,1-7.842,7.842H129.842A7.865,7.865,0,0,1,122,232.713V187.231a7.865,7.865,0,0,1,7.842-7.842h45.482a7.865,7.865,0,0,1,7.842,7.842Z" transform="translate(63.088 101.957)" fill="#ff9518"/>
      <path id="Path_68" data-name="Path 68" d="M141.619,232.713V187.231a7.865,7.865,0,0,1,7.842-7.842H129.842A7.865,7.865,0,0,0,122,187.231v45.482a7.865,7.865,0,0,0,7.842,7.842H149.46A7.865,7.865,0,0,1,141.619,232.713Z" transform="translate(63.088 101.957)" fill="#ef8318"/>
      <g id="Group_26" data-name="Group 26" transform="translate(259.061 300.167)">
        <path id="Path_69" data-name="Path 69" d="M260.915,203.152a19.217,19.217,0,0,1,4.023-11.763H180.929a11.763,11.763,0,0,0,0,23.525h84.009A19.227,19.227,0,0,1,260.915,203.152Z" transform="translate(-169.166 -191.389)" fill="#1a2b63"/>
        <path id="Path_70" data-name="Path 70" d="M268.952,191.389H249.768a19.208,19.208,0,0,1,0,23.525h19.184a11.763,11.763,0,0,0,0-23.525Z" transform="translate(-123.355 -191.389)" fill="#1a2b63"/>
      </g>
      <circle id="Ellipse_12" data-name="Ellipse 12" cx="20.911" cy="20.911" r="20.911" transform="translate(349.243 291.02)" fill="#ff9518"/>
    </g>
    <g id="_044-responsive" data-name="044-responsive" transform="translate(588)" opacity="0.12">
      <ellipse id="Ellipse_13" data-name="Ellipse 13" cx="300.062" cy="281.75" rx="300.062" ry="281.75" transform="translate(22.909 11)" fill="#69cdff"/>
      <rect id="Rectangle_37" data-name="Rectangle 37" width="81.961" height="42.933" transform="translate(231.918 414.13)" fill="#445ea0"/>
      <rect id="Rectangle_38" data-name="Rectangle 38" width="20.662" height="42.933" transform="translate(227.31 414.13)" fill="#2e4c89"/>
      <path id="Path_71" data-name="Path 71" d="M324.886,398.763H127.771a5.328,5.328,0,0,0-5.312,5.313V430.7a5.328,5.328,0,0,0,5.312,5.313H324.886V398.763Z" transform="translate(39.715 69.277)" fill="#293d7c"/>
      <path id="Path_72" data-name="Path 72" d="M143.121,430.7V404.075a5.329,5.329,0,0,1,5.313-5.313H127.771a5.328,5.328,0,0,0-5.312,5.313V430.7a5.328,5.328,0,0,0,5.312,5.313h20.662A5.328,5.328,0,0,1,143.121,430.7Z" transform="translate(27.658 69.277)" fill="#1a2b63"/>
      <path id="Path_73" data-name="Path 73" d="M552.3,58.964H6.331C2.849,58.964,0,61.355,0,64.277V366.635c0,2.923,2.849,5.313,6.331,5.313H393.212V212.873c0-4.018,3.9-7.289,8.687-7.289H558.635V64.277C558.635,61.355,555.785,58.964,552.3,58.964Z" transform="translate(0 1.981)" fill="#293d7c"/>
      <path id="Path_74" data-name="Path 74" d="M22.4,316.755a3.2,3.2,0,0,0,3.187,3.186H329.019V210.807a7.3,7.3,0,0,1,7.289-7.289H444.5V109H22.4Z" transform="translate(0.925 22.207)" fill="#fff"/>
      <path id="Path_75" data-name="Path 75" d="M43.059,316.755V109H22.4V316.755a3.2,3.2,0,0,0,3.187,3.186H46.246A3.2,3.2,0,0,1,43.059,316.755Z" transform="translate(0.925 22.207)" fill="#d9eafc"/>
      <circle id="Ellipse_14" data-name="Ellipse 14" cx="14.343" cy="14.343" r="14.343" transform="translate(259.24 370.301)" fill="#445ea0"/>
      <path id="Path_76" data-name="Path 76" d="M319.187,223.146H263.556a3.133,3.133,0,0,0-3.124,3.124v62.1a3.133,3.133,0,0,0,3.124,3.124h55.631Z" transform="translate(62.14 35.389)" fill="#c3ddf4"/>
      <path id="Path_77" data-name="Path 77" d="M281.094,288.372v-62.1a3.133,3.133,0,0,1,3.124-3.124H263.556a3.133,3.133,0,0,0-3.124,3.124v62.1a3.133,3.133,0,0,0,3.124,3.124h20.662A3.133,3.133,0,0,1,281.094,288.372Z" transform="translate(58.613 35.389)" fill="#aec1ed"/>
      <path id="Path_78" data-name="Path 78" d="M333.942,202.675h48.544V134.593a5.222,5.222,0,0,0-5.207-5.207H84.889a5.222,5.222,0,0,0-5.207,5.207v69.273a5.222,5.222,0,0,0,5.207,5.207H326.714A7.3,7.3,0,0,1,333.942,202.675Z" transform="translate(35.669 20.139)" fill="#c3ddf4"/>
      <path id="Path_79" data-name="Path 79" d="M100.344,203.865V134.592a5.222,5.222,0,0,1,5.207-5.207H84.889a5.222,5.222,0,0,0-5.207,5.207v69.273a5.222,5.222,0,0,0,5.207,5.207H105.55A5.222,5.222,0,0,1,100.344,203.865Z" transform="translate(17.993 20.139)" fill="#aec1ed"/>
      <path id="Path_80" data-name="Path 80" d="M441.317,84.983H25.583A3.2,3.2,0,0,0,22.4,88.171v22.86H444.5V88.171A3.2,3.2,0,0,0,441.317,84.983Z" transform="translate(0.925 11.53)" fill="#ffaf10"/>
      <path id="Path_81" data-name="Path 81" d="M46.246,84.983H25.583A3.2,3.2,0,0,0,22.4,88.171v22.86H43.058V88.171A3.2,3.2,0,0,1,46.246,84.983Z" transform="translate(0.925 11.53)" fill="#ff9518"/>
      <g id="Group_27" data-name="Group 27" transform="translate(103.825 259.402)">
        <path id="Path_82" data-name="Path 82" d="M175.291,239.6H87.644a7.81,7.81,0,1,1,0-15.62h87.647a7.81,7.81,0,1,1,0,15.62Z" transform="translate(-79.834 -223.979)" fill="#5dc1d8"/>
        <path id="Path_83" data-name="Path 83" d="M175.291,264.086H87.644a7.81,7.81,0,0,1,0-15.62h87.647a7.81,7.81,0,0,1,0,15.62Z" transform="translate(-79.834 -222.967)" fill="#5dc1d8"/>
        <path id="Path_84" data-name="Path 84" d="M175.291,288.573H87.644a7.81,7.81,0,1,1,0-15.62h87.647a7.81,7.81,0,1,1,0,15.62Z" transform="translate(-79.834 -221.956)" fill="#5dc1d8"/>
        <path id="Path_85" data-name="Path 85" d="M239.659,239.6H194.544a7.81,7.81,0,1,1,0-15.62h45.116a7.81,7.81,0,0,1,0,15.62Z" transform="translate(-75.418 -223.979)" fill="#5dc1d8"/>
        <path id="Path_86" data-name="Path 86" d="M239.659,264.086H194.544a7.81,7.81,0,0,1,0-15.62h45.116a7.81,7.81,0,0,1,0,15.62Z" transform="translate(-75.418 -222.967)" fill="#5dc1d8"/>
        <path id="Path_87" data-name="Path 87" d="M239.659,288.573H194.544a7.81,7.81,0,1,1,0-15.62h45.116a7.81,7.81,0,1,1,0,15.62Z" transform="translate(-75.418 -221.956)" fill="#5dc1d8"/>
      </g>
      <path id="Path_88" data-name="Path 88" d="M511.772,198.768a8.355,8.355,0,0,1,8.33,8.33V458.855a8.355,8.355,0,0,1-8.33,8.33H324.186a8.355,8.355,0,0,1-8.33-8.33V207.1a8.355,8.355,0,0,1,8.33-8.33Z" transform="translate(102.931 61.016)" fill="#445ea0"/>
      <path id="Path_89" data-name="Path 89" d="M337.773,433.839a5.222,5.222,0,0,1-5.207-5.207V219.387a5.222,5.222,0,0,1,5.207-5.207H496.805a5.222,5.222,0,0,1,5.207,5.207V428.632a5.222,5.222,0,0,1-5.207,5.207Z" transform="translate(103.621 47.171)" fill="#fff"/>
      <path id="Path_90" data-name="Path 90" d="M353.229,428.632V219.387a5.222,5.222,0,0,1,5.207-5.207H337.773a5.222,5.222,0,0,0-5.207,5.207V428.632a5.222,5.222,0,0,0,5.207,5.207h20.662A5.222,5.222,0,0,1,353.229,428.632Z" transform="translate(75.098 47.171)" fill="#d9eafc"/>
      <path id="Path_91" data-name="Path 91" d="M404.774,445.618a5.222,5.222,0,0,1-5.207-5.207v-2.025a5.222,5.222,0,0,1,5.207-5.207h19.5a5.222,5.222,0,0,1,5.207,5.207v2.025a5.222,5.222,0,0,1-5.207,5.207Z" transform="translate(90.82 70.699)" fill="#445ea0"/>
      <path id="Path_92" data-name="Path 92" d="M502.012,234.27V219.387a5.222,5.222,0,0,0-5.207-5.207H337.773a5.222,5.222,0,0,0-5.207,5.207V234.27Z" transform="translate(103.621 31.382)" fill="#ffaf10"/>
      <path id="Path_93" data-name="Path 93" d="M358.435,214.18H337.773a5.222,5.222,0,0,0-5.207,5.207V234.27h20.662V219.387A5.222,5.222,0,0,1,358.435,214.18Z" transform="translate(75.098 31.382)" fill="#ff9518"/>
      <g id="Group_28" data-name="Group 28" transform="translate(477.609 359.415)">
        <path id="Path_94" data-name="Path 94" d="M451.139,325.553H380.154a7.81,7.81,0,0,1,0-15.62h70.985a7.81,7.81,0,0,1,0,15.62Z" transform="translate(-372.344 -309.933)" fill="#5dc1d8"/>
        <path id="Path_95" data-name="Path 95" d="M451.139,348.68H380.154a7.81,7.81,0,1,1,0-15.62h70.985a7.81,7.81,0,1,1,0,15.62Z" transform="translate(-372.344 -308.978)" fill="#5dc1d8"/>
        <path id="Path_96" data-name="Path 96" d="M451.139,371.8H380.154a7.81,7.81,0,1,1,0-15.62h70.985a7.81,7.81,0,1,1,0,15.62Z" transform="translate(-372.344 -308.022)" fill="#5dc1d8"/>
      </g>
      <path id="Path_97" data-name="Path 97" d="M485.194,294.167a5.222,5.222,0,0,1-5.207,5.207H353.308a5.222,5.222,0,0,1-5.207-5.207V251.22a5.222,5.222,0,0,1,5.207-5.207h126.68a5.222,5.222,0,0,1,5.207,5.207Z" transform="translate(104.263 38.235)" fill="#c3ddf4"/>
      <path id="Path_98" data-name="Path 98" d="M368.763,294.167V251.22a5.222,5.222,0,0,1,5.207-5.207H353.307a5.222,5.222,0,0,0-5.207,5.207v42.948a5.222,5.222,0,0,0,5.207,5.207h20.662A5.222,5.222,0,0,1,368.763,294.167Z" transform="translate(78.606 38.235)" fill="#aec1ed"/>
      <path id="Path_99" data-name="Path 99" d="M465.708,410.321a5.222,5.222,0,0,1-5.207,5.207h-89.2a5.222,5.222,0,0,1-5.207-5.207V392.712a5.222,5.222,0,0,1,5.207-5.207h89.2a5.222,5.222,0,0,1,5.207,5.207v17.609Z" transform="translate(105.007 58.854)" fill="#c3ddf4"/>
      <path id="Path_100" data-name="Path 100" d="M386.762,410.321V392.712a5.222,5.222,0,0,1,5.207-5.207H371.307a5.222,5.222,0,0,0-5.207,5.207v17.609a5.222,5.222,0,0,0,5.207,5.207h20.662A5.222,5.222,0,0,1,386.762,410.321Z" transform="translate(82.671 58.854)" fill="#aec1ed"/>
    </g>
  </g>
</svg>
