<?xml version="1.0" encoding="iso-8859-1"?>
<!-- Generator: Adobe Illustrator 19.0.0, SVG Export Plug-In . SVG Version: 6.00 Build 0)  -->
<svg version="1.1" id="Layer_1" xmlns="http://www.w3.org/2000/svg" xmlns:xlink="http://www.w3.org/1999/xlink" x="0px" y="0px"
	 viewBox="0 0 512 512" style="enable-background:new 0 0 512 512;" xml:space="preserve">
<g>
	<g>
		<path fill="#00eeff" d="M493.297,159.694c-12.477-30.878-31.231-59.828-56.199-84.792c-24.964-24.967-53.914-43.722-84.792-56.199
			c-30.882-12.481-63.69-18.703-96.484-18.703c-32.748,0-65.497,6.249-96.315,18.744c-30.814,12.49-59.695,31.242-84.607,56.158
			c-24.915,24.911-43.668,53.792-56.158,84.607C6.249,190.325,0,223.073,0,255.821c0,32.794,6.222,65.602,18.701,96.485
			c12.477,30.878,31.231,59.829,56.199,84.793c24.964,24.967,53.914,43.722,84.792,56.199c30.882,12.48,63.69,18.701,96.484,18.701
			c32.748,0,65.497-6.249,96.315-18.743c30.814-12.49,59.695-31.242,84.607-56.158c24.916-24.912,43.669-53.793,56.159-84.607
			c12.494-30.817,18.743-63.565,18.744-96.315C512,223.384,505.778,190.575,493.297,159.694z M461.613,339.661
			c-10.824,26.684-27.021,51.649-48.661,73.292c-21.643,21.64-46.608,37.837-73.291,48.659
			c-26.679,10.818-55.078,16.241-83.484,16.241c-28.477,0-56.947-5.406-83.688-16.214c-26.744-10.813-51.76-27.007-73.441-48.685
			c-21.679-21.682-37.874-46.697-48.685-73.442c-10.808-26.741-16.214-55.212-16.213-83.689c0-28.406,5.424-56.804,16.241-83.483
			c10.821-26.683,27.018-51.648,48.659-73.291c21.643-21.64,46.608-37.837,73.292-48.659c26.679-10.818,55.078-16.241,83.484-16.241
			c28.477,0,56.947,5.405,83.688,16.214c26.744,10.813,51.76,27.007,73.441,48.685c21.679,21.682,37.873,46.697,48.685,73.441
			c10.808,26.741,16.214,55.211,16.214,83.688C477.854,284.582,472.431,312.98,461.613,339.661z"/>
	</g>
</g>
<g>
	<g>
		<path fill="#00eeff" d="M362.32,149.681c-6.524-6.524-17.102-6.524-23.627,0L149.68,338.694c-6.524,6.525-6.524,17.102,0,23.627
			c6.525,6.525,17.102,6.525,23.627,0l189.014-189.014C368.844,166.783,368.844,156.204,362.32,149.681z"/>
	</g>
</g>
<g>
	<g>
		<path fill="#00eeff" d="M246.76,137.073c-2.448-6.044-6.146-11.729-11.009-16.589c-4.859-4.863-10.544-8.56-16.589-11.009
			c-6.048-2.451-12.453-3.671-18.852-3.671s-12.804,1.22-18.852,3.671c-6.044,2.448-11.729,6.146-16.589,11.009
			c-4.863,4.858-8.56,10.544-11.009,16.589c-2.451,6.048-3.671,12.453-3.671,18.852s1.22,12.804,3.671,18.852
			c2.448,6.044,6.147,11.729,11.009,16.589c4.859,4.863,10.544,8.56,16.589,11.009c6.048,2.451,12.453,3.671,18.852,3.671
			s12.804-1.22,18.852-3.671c6.044-2.448,11.729-6.146,16.589-11.009c4.863-4.859,8.56-10.544,11.009-16.589
			c2.451-6.048,3.671-12.453,3.671-18.852S249.212,143.121,246.76,137.073z M215.795,162.22c-0.814,2-2.009,3.853-3.671,5.519
			c-1.665,1.662-3.518,2.857-5.518,3.671c-1.997,0.811-4.143,1.222-6.295,1.222c-2.153,0-4.298-0.412-6.295-1.222
			c-2-0.814-3.853-2.009-5.518-3.671c-1.662-1.665-2.857-3.518-3.671-5.518c-0.811-1.997-1.222-4.143-1.222-6.295
			c-0.001-2.153,0.411-4.299,1.221-6.296c0.814-2,2.009-3.853,3.671-5.518c1.666-1.662,3.518-2.858,5.519-3.671
			c1.997-0.811,4.143-1.222,6.295-1.222c2.153,0,4.298,0.412,6.295,1.222c2,0.814,3.853,2.009,5.518,3.671
			c1.662,1.665,2.857,3.518,3.671,5.518c0.811,1.997,1.222,4.143,1.222,6.295C217.017,158.077,216.605,160.223,215.795,162.22z"/>
	</g>
</g>
<g>
	<g>
		<path fill="#00eeff" d="M369.275,326.251c-2.448-6.044-6.147-11.729-11.009-16.589c-4.858-4.863-10.544-8.56-16.589-11.009
			c-6.048-2.451-12.453-3.671-18.852-3.671s-12.804,1.22-18.852,3.671c-6.044,2.448-11.729,6.146-16.589,11.009
			c-4.863,4.858-8.56,10.544-11.009,16.589c-2.451,6.048-3.671,12.453-3.671,18.852s1.22,12.804,3.671,18.852
			c2.448,6.044,6.146,11.729,11.009,16.589c4.859,4.863,10.544,8.56,16.589,11.009c6.048,2.451,12.453,3.671,18.852,3.671
			s12.804-1.22,18.852-3.671c6.044-2.448,11.729-6.146,16.589-11.009c4.863-4.859,8.56-10.544,11.009-16.589
			c2.451-6.048,3.671-12.453,3.671-18.852S371.727,332.299,369.275,326.251z M338.311,351.396c-0.814,2-2.009,3.853-3.671,5.518
			c-1.665,1.662-3.518,2.857-5.518,3.671c-1.997,0.811-4.143,1.222-6.295,1.222c-2.153,0-4.298-0.412-6.295-1.222
			c-2-0.814-3.853-2.009-5.518-3.671c-1.662-1.665-2.857-3.518-3.671-5.518c-0.811-1.997-1.223-4.143-1.222-6.295
			c0-2.153,0.412-4.298,1.222-6.295c0.814-2,2.009-3.853,3.671-5.518c1.665-1.662,3.518-2.857,5.519-3.671
			c1.997-0.811,4.143-1.222,6.295-1.222c2.153,0,4.298,0.412,6.295,1.222c1.998,0.814,3.85,2.009,5.517,3.671
			c1.662,1.665,2.857,3.518,3.671,5.518c0.811,1.997,1.222,4.143,1.222,6.295C339.533,347.254,339.121,349.4,338.311,351.396z"/>
	</g>
</g>
<g>
</g>
<g>
</g>
<g>
</g>
<g>
</g>
<g>
</g>
<g>
</g>
<g>
</g>
<g>
</g>
<g>
</g>
<g>
</g>
<g>
</g>
<g>
</g>
<g>
</g>
<g>
</g>
<g>
</g>
</svg>
